<svg xmlns="http://www.w3.org/2000/svg" xmlns:xlink="http://www.w3.org/1999/xlink" width="500" zoomAndPan="magnify" viewBox="0 0 375 374.999991" height="500" preserveAspectRatio="xMidYMid meet" version="1.0"><defs><clipPath id="45dca9408e"><path d="M 297 82 L 370.8125 82 L 370.8125 130 L 297 130 Z M 297 82 " clip-rule="nonzero"/></clipPath><clipPath id="8e0e8d482f"><path d="M 277 45.109375 L 313 45.109375 L 313 110 L 277 110 Z M 277 45.109375 " clip-rule="nonzero"/></clipPath><clipPath id="f9aed6c21a"><path d="M 4.066406 82 L 77 82 L 77 130 L 4.066406 130 Z M 4.066406 82 " clip-rule="nonzero"/></clipPath><clipPath id="ba7991b13b"><path d="M 62 45.109375 L 97 45.109375 L 97 110 L 62 110 Z M 62 45.109375 " clip-rule="nonzero"/></clipPath></defs><path fill="#164e63" d="M 208.363281 325.53125 C 203.757812 330.144531 196.269531 330.152344 191.644531 325.550781 C 191.644531 325.550781 191.636719 325.542969 191.628906 325.53125 L 184.828125 318.71875 L 188.933594 314.609375 C 195.078125 308.460938 195.078125 298.460938 188.933594 292.3125 C 185.957031 289.339844 182 287.691406 177.804688 287.691406 L 177.796875 287.691406 C 177.199219 287.691406 176.621094 287.738281 176.03125 287.804688 C 177.714844 285.003906 178.460938 281.804688 178.25 278.640625 L 208.441406 308.859375 C 212.976562 313.488281 212.957031 320.945312 208.363281 325.53125 Z M 208.363281 325.53125 " fill-opacity="1" fill-rule="nonzero"/><path fill="#164e63" d="M 186.171875 311.839844 L 180.671875 317.339844 L 175.179688 322.835938 C 170.566406 327.453125 163.058594 327.453125 158.445312 322.835938 C 156.214844 320.601562 154.984375 317.628906 154.984375 314.460938 C 154.984375 311.300781 156.214844 308.328125 158.445312 306.082031 L 163.9375 300.585938 C 163.9375 300.585938 163.9375 300.585938 163.945312 300.585938 L 168.199219 296.320312 L 168.425781 296.101562 L 169.4375 295.089844 C 171.667969 292.851562 174.640625 291.613281 177.796875 291.613281 L 177.804688 291.613281 C 180.960938 291.613281 183.929688 292.84375 186.171875 295.089844 C 190.777344 299.707031 190.777344 307.222656 186.171875 311.839844 Z M 186.171875 311.839844 " fill-opacity="1" fill-rule="nonzero"/><path fill="#164e63" d="M 170.925781 288.046875 L 166.664062 292.3125 L 161.171875 297.808594 C 161.171875 297.808594 161.171875 297.808594 161.171875 297.816406 L 155.679688 303.316406 C 151.066406 307.9375 143.5625 307.9375 138.945312 303.316406 C 134.339844 298.703125 134.332031 291.199219 138.929688 286.578125 C 138.9375 286.570312 138.9375 286.570312 138.945312 286.5625 L 152.054688 273.441406 C 152.0625 273.433594 152.0625 273.433594 152.0625 273.433594 L 154.214844 271.277344 C 158.8125 266.691406 166.289062 266.691406 170.902344 271.269531 C 170.910156 271.285156 170.917969 271.292969 170.925781 271.300781 L 171.011719 271.386719 C 175.53125 276.015625 175.507812 283.457031 170.925781 288.046875 Z M 170.925781 288.046875 " fill-opacity="1" fill-rule="nonzero"/><path fill="#164e63" d="M 154.789062 265.160156 L 151.441406 268.511719 C 151.441406 268.519531 151.433594 268.519531 151.425781 268.527344 L 141.679688 278.28125 C 141.671875 278.289062 141.671875 278.289062 141.671875 278.289062 L 136.175781 283.796875 L 136.167969 283.804688 C 131.550781 288.40625 124.054688 288.40625 119.449219 283.796875 C 114.835938 279.175781 114.835938 271.664062 119.449219 267.046875 L 132.554688 253.917969 L 132.5625 253.917969 L 138.054688 248.410156 C 142.667969 243.789062 150.171875 243.789062 154.789062 248.410156 C 159.402344 253.027344 159.402344 260.542969 154.789062 265.160156 Z M 154.789062 265.160156 " fill-opacity="1" fill-rule="nonzero"/><path fill="#164e63" d="M 138.75 237.265625 C 138.75 240.425781 137.519531 243.398438 135.289062 245.640625 L 116.675781 264.269531 C 112.0625 268.886719 104.554688 268.886719 99.941406 264.269531 C 95.335938 259.65625 95.335938 252.132812 99.941406 247.523438 L 105.417969 242.042969 C 105.425781 242.035156 105.433594 242.035156 105.441406 242.027344 C 105.449219 242.019531 105.449219 242.007812 105.457031 241.996094 L 118.554688 228.890625 C 120.789062 226.652344 123.757812 225.421875 126.921875 225.414062 C 128.496094 225.414062 130.03125 225.726562 131.449219 226.316406 C 132.867188 226.902344 134.167969 227.769531 135.289062 228.886719 C 137.519531 231.125 138.75 234.097656 138.75 237.265625 Z M 138.75 237.265625 " fill-opacity="1" fill-rule="nonzero"/><path fill="#164e63" d="M 326.484375 172.34375 C 326.484375 174.902344 325.496094 177.308594 323.703125 179.105469 L 314.476562 188.335938 C 312.679688 190.132812 310.28125 191.121094 307.722656 191.121094 C 305.160156 191.121094 302.761719 190.132812 300.96875 188.335938 L 262.917969 150.25 L 238.445312 125.742188 C 238.4375 125.734375 238.429688 125.726562 238.421875 125.71875 L 229.164062 116.457031 C 225.441406 112.726562 225.441406 106.664062 229.164062 102.929688 L 238.390625 93.699219 C 240.1875 91.902344 242.582031 90.914062 245.144531 90.914062 C 247.707031 90.914062 250.105469 91.902344 251.898438 93.699219 L 323.703125 165.574219 C 325.5 167.378906 326.484375 169.78125 326.484375 172.34375 Z M 326.484375 172.34375 " fill-opacity="1" fill-rule="nonzero"/><path fill="#164e63" d="M 146.140625 115.078125 L 136.855469 124.378906 C 136.777344 124.449219 136.730469 124.496094 136.707031 124.519531 L 84.757812 176.523438 L 74.339844 186.960938 C 72.546875 188.757812 70.140625 189.746094 67.578125 189.746094 C 65.019531 189.746094 62.621094 188.757812 60.828125 186.960938 L 51.605469 177.722656 C 47.878906 174 47.878906 167.929688 51.605469 164.195312 L 123.40625 92.316406 C 125.199219 90.523438 127.605469 89.535156 130.15625 89.535156 C 132.71875 89.535156 135.117188 90.523438 136.917969 92.316406 L 146.140625 101.558594 C 149.859375 105.28125 149.859375 111.351562 146.140625 115.078125 Z M 146.140625 115.078125 " fill-opacity="1" fill-rule="nonzero"/><path fill="#164e63" d="M 270.300781 270.375 C 265.683594 274.988281 258.179688 274.996094 253.566406 270.375 C 253.566406 270.367188 253.558594 270.367188 253.558594 270.367188 L 208.667969 225.429688 C 207.910156 224.667969 206.671875 224.667969 205.90625 225.429688 C 205.136719 226.199219 205.136719 227.4375 205.90625 228.207031 L 257.132812 279.488281 C 261.746094 284.109375 261.746094 291.621094 257.132812 296.242188 C 254.898438 298.484375 251.921875 299.714844 248.765625 299.714844 C 245.597656 299.714844 242.628906 298.484375 240.398438 296.242188 L 189.171875 244.957031 C 188.402344 244.195312 187.164062 244.195312 186.398438 244.957031 C 185.628906 245.726562 185.628906 246.964844 186.398438 247.734375 L 232.726562 294.117188 C 232.734375 294.125 232.742188 294.132812 232.75 294.140625 C 234.984375 296.375 236.214844 299.347656 236.214844 302.515625 C 236.214844 305.675781 234.984375 308.65625 232.75 310.890625 C 228.128906 315.511719 220.625 315.511719 216.011719 310.898438 L 211.207031 306.082031 C 211.183594 306.058594 211.160156 306.035156 211.136719 306.003906 C 211.121094 305.996094 211.105469 305.980469 211.089844 305.972656 L 173.785156 268.617188 C 173.753906 268.585938 173.730469 268.554688 173.699219 268.523438 C 170.070312 264.894531 165.105469 263.425781 160.378906 264.085938 C 163.472656 258.140625 162.535156 250.621094 157.558594 245.640625 C 153.359375 241.4375 147.375 240.109375 142.039062 241.648438 C 142.449219 240.242188 142.667969 238.769531 142.667969 237.261719 C 142.667969 233.050781 141.03125 229.089844 138.054688 226.113281 C 135.078125 223.140625 131.128906 221.492188 126.921875 221.492188 C 126.921875 221.492188 126.921875 221.492188 126.914062 221.492188 C 122.714844 221.5 118.757812 223.140625 115.78125 226.113281 L 104.109375 237.804688 C 77.957031 210.066406 78.78125 190.96875 79.164062 187.675781 L 107.902344 158.898438 L 139.535156 127.230469 C 140.128906 126.660156 149.445312 117.929688 171.019531 117.167969 C 178.492188 116.910156 185.941406 116.878906 192.554688 116.964844 C 179.449219 122.644531 170.25 132.582031 169.425781 133.492188 L 123.464844 179.496094 C 120.488281 182.476562 118.851562 186.4375 118.851562 190.648438 C 118.851562 194.859375 120.488281 198.8125 123.464844 201.792969 C 129.609375 207.941406 139.605469 207.949219 145.746094 201.800781 C 145.753906 201.78125 145.761719 201.777344 145.777344 201.761719 L 173.769531 173.738281 C 178.382812 169.121094 185.886719 169.121094 190.507812 173.738281 L 270.296875 253.617188 C 274.914062 258.234375 274.914062 265.757812 270.300781 270.375 Z M 270.300781 270.375 " fill-opacity="1" fill-rule="nonzero"/><path fill="#164e63" d="M 265.042969 242.808594 L 193.277344 170.964844 C 190.207031 167.890625 186.171875 166.351562 182.144531 166.351562 C 178.109375 166.351562 174.074219 167.890625 171.003906 170.964844 L 142.972656 199.023438 C 142.964844 199.03125 142.957031 199.039062 142.949219 199.046875 C 138.335938 203.644531 130.847656 203.636719 126.242188 199.015625 C 124 196.78125 122.769531 193.808594 122.769531 190.648438 C 122.769531 187.480469 124 184.507812 126.242188 182.273438 L 172.226562 136.230469 C 172.257812 136.207031 172.28125 136.175781 172.296875 136.152344 C 172.460938 135.976562 187.285156 119.734375 205.640625 117.273438 C 211.570312 117.46875 215.824219 117.703125 217.234375 117.789062 L 217.453125 117.796875 C 223.929688 119.3125 230.035156 122.878906 235.652344 128.488281 L 271.90625 164.792969 L 296.925781 189.839844 C 297.351562 191.839844 298.605469 205.761719 265.042969 242.808594 Z M 265.042969 242.808594 " fill-opacity="1" fill-rule="nonzero"/><path fill="#164e63" d="M 361.472656 134.550781 C 361.472656 139.128906 357.75 142.863281 353.167969 142.863281 C 348.585938 142.863281 344.855469 139.128906 344.855469 134.550781 C 344.855469 132.957031 345.308594 131.476562 346.085938 130.214844 L 340.875 125 L 329.957031 114.066406 L 309.0625 134.972656 C 309.0625 134.980469 309.054688 134.980469 309.046875 134.988281 C 309.039062 134.988281 309.039062 134.996094 309.039062 134.996094 L 307.964844 136.070312 C 307.582031 136.457031 307.078125 136.644531 306.578125 136.644531 C 306.078125 136.644531 305.574219 136.457031 305.191406 136.070312 C 304.429688 135.304688 304.429688 134.0625 305.191406 133.304688 L 306.289062 132.207031 C 306.304688 132.191406 306.3125 132.183594 306.328125 132.167969 L 328.558594 109.910156 C 328.945312 109.523438 329.445312 109.328125 329.945312 109.328125 C 330.449219 109.328125 330.957031 109.523438 331.339844 109.910156 L 342.089844 120.667969 L 348.867188 127.445312 C 350.121094 126.675781 351.589844 126.230469 353.167969 126.230469 C 357.75 126.230469 361.472656 129.960938 361.472656 134.550781 Z M 361.472656 134.550781 " fill-opacity="1" fill-rule="nonzero"/><path fill="#164e63" d="M 286.882812 89.1875 L 275.109375 100.976562 C 275.109375 100.984375 275.101562 100.984375 275.101562 100.984375 L 273.996094 102.082031 C 273.613281 102.457031 273.121094 102.648438 272.617188 102.648438 C 272.117188 102.648438 271.617188 102.457031 271.230469 102.066406 C 270.464844 101.296875 270.472656 100.058594 271.238281 99.296875 L 272.25 98.292969 C 272.273438 98.261719 272.304688 98.230469 272.34375 98.191406 L 282.730469 87.800781 L 278.085938 83.148438 L 269.351562 74.40625 C 268.058594 75.199219 266.578125 75.628906 265.035156 75.628906 C 262.808594 75.628906 260.726562 74.765625 259.160156 73.199219 C 255.917969 69.949219 255.917969 64.671875 259.152344 61.433594 C 260.726562 59.867188 262.808594 59.003906 265.027344 59.003906 C 267.25 59.003906 269.335938 59.867188 270.902344 61.433594 C 273.660156 64.195312 274.058594 68.429688 272.117188 71.628906 L 279.941406 79.457031 L 286.882812 86.40625 C 287.070312 86.59375 287.210938 86.8125 287.308594 87.046875 C 287.410156 87.285156 287.460938 87.542969 287.460938 87.800781 C 287.464844 88.320312 287.253906 88.820312 286.882812 89.1875 Z M 286.882812 89.1875 " fill-opacity="1" fill-rule="nonzero"/><g clip-path="url(#45dca9408e)"><path fill="#164e63" d="M 370.457031 91.085938 C 370.457031 95.675781 366.726562 99.40625 362.144531 99.40625 C 358.15625 99.40625 354.820312 96.578125 354.019531 92.820312 L 337.097656 92.8125 L 300.9375 129.023438 C 300.554688 129.414062 300.050781 129.601562 299.542969 129.601562 C 299.050781 129.601562 298.546875 129.414062 298.164062 129.039062 C 297.398438 128.269531 297.398438 127.03125 298.15625 126.261719 L 299.253906 125.15625 L 334.90625 89.472656 C 335.265625 89.101562 335.769531 88.890625 336.285156 88.890625 L 354.136719 88.898438 C 355.101562 85.378906 358.320312 82.773438 362.144531 82.773438 C 366.726562 82.773438 370.457031 86.507812 370.457031 91.085938 Z M 370.457031 91.085938 " fill-opacity="1" fill-rule="nonzero"/></g><g clip-path="url(#8e0e8d482f)"><path fill="#164e63" d="M 305.542969 85.171875 L 281.34375 109.40625 C 280.960938 109.800781 280.460938 109.988281 279.949219 109.988281 C 279.457031 109.988281 278.957031 109.800781 278.570312 109.421875 C 277.804688 108.65625 277.804688 107.414062 278.5625 106.648438 L 279.660156 105.539062 L 302.199219 82.976562 L 302.183594 61.589844 C 298.398438 60.816406 295.539062 57.457031 295.539062 53.441406 C 295.539062 48.855469 299.269531 45.121094 303.84375 45.121094 C 308.429688 45.121094 312.15625 48.855469 312.15625 53.441406 C 312.15625 57.246094 309.585938 60.445312 306.101562 61.433594 L 306.117188 83.785156 C 306.117188 84.3125 305.914062 84.804688 305.542969 85.171875 Z M 305.542969 85.171875 " fill-opacity="1" fill-rule="nonzero"/></g><path fill="#164e63" d="M 302.144531 107.523438 L 291.898438 117.78125 C 291.882812 117.800781 291.867188 117.808594 291.859375 117.816406 C 291.851562 117.824219 291.835938 117.839844 291.828125 117.847656 L 290.792969 118.882812 C 290.410156 119.265625 289.90625 119.453125 289.40625 119.453125 C 288.902344 119.453125 288.402344 119.265625 288.019531 118.882812 C 287.257812 118.113281 287.257812 116.875 288.019531 116.105469 L 289.085938 115.046875 C 289.101562 115.03125 289.117188 115.015625 289.125 115 L 299.691406 104.433594 C 298.921875 103.171875 298.46875 101.699219 298.46875 100.113281 C 298.46875 95.535156 302.199219 91.800781 306.773438 91.800781 C 311.355469 91.800781 315.085938 95.535156 315.085938 100.113281 C 315.085938 104.703125 311.355469 108.433594 306.773438 108.433594 C 305.191406 108.433594 303.71875 107.980469 302.457031 107.210938 Z M 302.144531 107.523438 " fill-opacity="1" fill-rule="nonzero"/><path fill="#164e63" d="M 86.382812 115.640625 C 87.148438 116.402344 87.148438 117.648438 86.382812 118.410156 C 85.996094 118.792969 85.496094 118.984375 84.996094 118.984375 C 84.492188 118.984375 83.992188 118.792969 83.609375 118.410156 L 83.003906 117.796875 C 82.996094 117.789062 82.988281 117.789062 82.980469 117.78125 L 72.421875 107.210938 C 71.160156 107.980469 69.6875 108.433594 68.105469 108.433594 C 63.523438 108.433594 59.792969 104.703125 59.792969 100.113281 C 59.792969 95.535156 63.523438 91.800781 68.105469 91.800781 C 72.679688 91.800781 76.410156 95.535156 76.410156 100.113281 C 76.410156 101.699219 75.953125 103.171875 75.1875 104.433594 L 85.753906 115 C 85.792969 115.039062 85.824219 115.078125 85.855469 115.117188 Z M 86.382812 115.640625 " fill-opacity="1" fill-rule="nonzero"/><path fill="#164e63" d="M 115.71875 73.199219 C 114.152344 74.765625 112.0625 75.628906 109.84375 75.628906 C 108.292969 75.628906 106.8125 75.199219 105.527344 74.40625 L 92.15625 87.792969 L 102.542969 98.199219 L 102.636719 98.292969 L 103.160156 98.8125 C 103.929688 99.574219 103.9375 100.820312 103.175781 101.589844 C 102.792969 101.972656 102.292969 102.167969 101.78125 102.167969 C 101.289062 102.167969 100.789062 101.980469 100.410156 101.605469 L 99.800781 101 C 99.785156 100.992188 99.777344 100.984375 99.769531 100.976562 L 87.988281 89.1875 C 87.625 88.820312 87.414062 88.320312 87.414062 87.800781 C 87.414062 87.285156 87.625 86.78125 87.988281 86.414062 L 102.753906 71.636719 C 101.972656 70.34375 101.539062 68.859375 101.539062 67.316406 C 101.539062 65.097656 102.402344 63.003906 103.976562 61.433594 C 105.542969 59.867188 107.628906 59.003906 109.851562 59.003906 C 112.070312 59.003906 114.152344 59.867188 115.71875 61.433594 C 118.960938 64.671875 118.960938 69.949219 115.71875 73.199219 Z M 115.71875 73.199219 " fill-opacity="1" fill-rule="nonzero"/><g clip-path="url(#f9aed6c21a)"><path fill="#164e63" d="M 76.242188 128.550781 C 75.859375 128.933594 75.359375 129.125 74.859375 129.125 C 74.355469 129.125 73.855469 128.933594 73.472656 128.550781 L 37.789062 92.8125 L 20.851562 92.820312 C 20.058594 96.578125 16.722656 99.40625 12.734375 99.40625 C 8.152344 99.40625 4.421875 95.675781 4.421875 91.085938 C 4.421875 86.507812 8.152344 82.773438 12.734375 82.773438 C 16.558594 82.773438 19.769531 85.378906 20.734375 88.898438 L 38.59375 88.890625 C 39.117188 88.890625 39.613281 89.101562 39.980469 89.472656 L 76.242188 125.78125 C 77.011719 126.542969 77.011719 127.78125 76.242188 128.550781 Z M 76.242188 128.550781 " fill-opacity="1" fill-rule="nonzero"/></g><g clip-path="url(#ba7991b13b)"><path fill="#164e63" d="M 95.835938 106.167969 C 96.605469 106.929688 96.605469 108.167969 95.835938 108.9375 C 95.453125 109.320312 94.953125 109.507812 94.449219 109.507812 C 93.949219 109.507812 93.449219 109.320312 93.0625 108.9375 L 69.328125 85.171875 C 68.957031 84.804688 68.753906 84.304688 68.753906 83.785156 L 68.777344 61.433594 C 65.292969 60.453125 62.722656 57.246094 62.722656 53.441406 C 62.722656 48.855469 66.453125 45.121094 71.027344 45.121094 C 75.609375 45.121094 79.339844 48.855469 79.339844 53.441406 C 79.339844 57.457031 76.480469 60.816406 72.695312 61.589844 L 72.671875 82.976562 Z M 95.835938 106.167969 " fill-opacity="1" fill-rule="nonzero"/></g><path fill="#164e63" d="M 69.210938 132.832031 C 69.976562 133.59375 69.976562 134.832031 69.210938 135.601562 C 68.824219 135.984375 68.324219 136.175781 67.824219 136.175781 C 67.320312 136.175781 66.820312 135.984375 66.4375 135.601562 L 65.816406 134.972656 L 44.925781 114.066406 L 28.792969 130.214844 C 29.5625 131.476562 30.015625 132.957031 30.015625 134.550781 C 30.015625 139.128906 26.292969 142.863281 21.710938 142.863281 C 17.128906 142.863281 13.40625 139.128906 13.40625 134.550781 C 13.40625 129.960938 17.128906 126.230469 21.710938 126.230469 C 23.285156 126.230469 24.757812 126.683594 26.011719 127.445312 L 43.539062 109.910156 C 43.640625 109.808594 43.742188 109.730469 43.851562 109.648438 C 43.960938 109.578125 44.070312 109.523438 44.1875 109.476562 C 44.765625 109.242188 45.433594 109.296875 45.972656 109.632812 C 45.980469 109.640625 45.988281 109.648438 46.003906 109.648438 C 46.011719 109.667969 46.027344 109.675781 46.035156 109.683594 C 46.128906 109.753906 46.222656 109.824219 46.308594 109.902344 L 68.582031 132.199219 C 68.613281 132.230469 68.652344 132.261719 68.683594 132.300781 Z M 69.210938 132.832031 " fill-opacity="1" fill-rule="nonzero"/></svg>